# MagicaVoxel @ Ephtracy

# group
o 

# material
mtllib pistol1.mtl
usemtl palette

# normals
vn -1 0 0
vn 1 0 0
vn 0 0 1
vn 0 0 -1
vn 0 -1 0
vn 0 1 0

# texcoords
vt 0.880859 0.5
vt 0.970703 0.5
vt 0.982422 0.5
vt 0.990234 0.5
vt 0.994141 0.5

# verts
v 0 2.6 0
v 0 2.6 -0.9
v 0 3.9 -0.9
v 0 3.9 -3.5
v 0 4.3 0
v 0 4.3 -0.1
v 0 4.4 -0.1
v 0 4.4 -0.2
v 0 4.5 -0.2
v 0 4.5 -3.5
v 0.1 2 -0.1
v 0.1 2 -0.9
v 0.1 2.2 -0.1
v 0.1 2.2 -0.9
v 0.1 2.3 -0.1
v 0.1 2.3 -0.9
v 0.1 2.6 -0.1
v 0.1 2.6 -0.9
v 0.1 2.6 -1
v 0.1 3.8 -1
v 0.1 3.8 -3.5
v 0.1 3.9 -0.9
v 0.1 3.9 -3.5
v 0.1 4.3 0
v 0.1 4.3 -0.1
v 0.1 4.4 0
v 0.1 4.4 -0.1
v 0.1 4.4 -0.2
v 0.1 4.5 -0.1
v 0.1 4.5 -0.2
v 0.1 4.5 -3.5
v 0.1 4.6 -0.2
v 0.1 4.6 -3.5
v 0.2 2.2 -0.1
v 0.2 2.2 -0.9
v 0.2 2.3 -0.1
v 0.2 2.3 -0.9
v 0.2 2.6 -1
v 0.2 2.6 -1.2
v 0.2 2.7 -1
v 0.2 2.7 -1.1
v 0.2 2.7 -1.2
v 0.2 2.7 -1.3
v 0.2 2.8 -1.1
v 0.2 2.8 -1.2
v 0.2 2.8 -1.3
v 0.2 2.8 -1.5
v 0.2 2.9 -1.2
v 0.2 2.9 -1.4
v 0.2 2.9 -1.5
v 0.2 2.9 -1.7
v 0.2 3 -1.4
v 0.2 3 -1.6
v 0.2 3 -1.7
v 0.2 3 -1.8
v 0.2 3.1 -1.6
v 0.2 3.1 -1.7
v 0.2 3.1 -1.8
v 0.2 3.1 -1.9
v 0.2 3.2 -1.7
v 0.2 3.2 -1.8
v 0.2 3.3 -1.9
v 0.2 3.3 -2
v 0.2 3.4 -1.8
v 0.2 3.4 -1.9
v 0.2 3.5 -2
v 0.2 3.5 -2.1
v 0.2 3.6 -1.9
v 0.2 3.6 -2
v 0.2 3.7 -1
v 0.2 3.7 -2
v 0.2 3.8 -1
v 0.2 3.8 -2.1
v 0.3 3.4 -1.3
v 0.3 3.4 -1.4
v 0.3 3.7 -1.3
v 0.3 3.7 -1.4
v 0.3 4.6 -0.2
v 0.3 4.6 -0.3
v 0.3 4.7 -0.2
v 0.3 4.7 -0.3
v 0.4 3.2 -1.3
v 0.4 3.2 -1.4
v 0.4 3.4 -1.2
v 0.4 3.4 -1.3
v 0.4 3.4 -1.4
v 0.4 3.7 -1.2
v 0.4 3.7 -1.3
v 0.4 4.6 -3.4
v 0.4 4.6 -3.5
v 0.4 4.7 -3.4
v 0.4 4.7 -3.5
v 0.6 4.6 -0.2
v 0.6 4.6 -0.3
v 0.6 4.7 -0.2
v 0.6 4.7 -0.3
v 0.8 4 -1.1
v 0.8 4 -3.5
v 0.8 4.4 -1.1
v 0.8 4.4 -3.5
v 0.2 4 -1.1
v 0.2 4 -3.5
v 0.2 4.4 -1.1
v 0.2 4.4 -3.5
v 0.4 4.6 -0.2
v 0.4 4.6 -0.3
v 0.4 4.7 -0.2
v 0.4 4.7 -0.3
v 0.6 3.2 -1.3
v 0.6 3.2 -1.4
v 0.6 3.4 -1.2
v 0.6 3.4 -1.3
v 0.6 3.4 -1.4
v 0.6 3.7 -1.2
v 0.6 3.7 -1.3
v 0.6 4.6 -3.4
v 0.6 4.6 -3.5
v 0.6 4.7 -3.4
v 0.6 4.7 -3.5
v 0.7 3.4 -1.3
v 0.7 3.4 -1.4
v 0.7 3.7 -1.3
v 0.7 3.7 -1.4
v 0.7 4.6 -0.2
v 0.7 4.6 -0.3
v 0.7 4.7 -0.2
v 0.7 4.7 -0.3
v 0.8 2.2 -0.1
v 0.8 2.2 -0.9
v 0.8 2.3 -0.1
v 0.8 2.3 -0.9
v 0.8 2.6 -1
v 0.8 2.6 -1.2
v 0.8 2.7 -1
v 0.8 2.7 -1.1
v 0.8 2.7 -1.2
v 0.8 2.7 -1.3
v 0.8 2.8 -1.1
v 0.8 2.8 -1.2
v 0.8 2.8 -1.3
v 0.8 2.8 -1.5
v 0.8 2.9 -1.2
v 0.8 2.9 -1.4
v 0.8 2.9 -1.5
v 0.8 2.9 -1.7
v 0.8 3 -1.4
v 0.8 3 -1.6
v 0.8 3 -1.7
v 0.8 3 -1.8
v 0.8 3.1 -1.6
v 0.8 3.1 -1.7
v 0.8 3.1 -1.8
v 0.8 3.1 -1.9
v 0.8 3.2 -1.7
v 0.8 3.2 -1.8
v 0.8 3.3 -1.9
v 0.8 3.3 -2
v 0.8 3.4 -1.8
v 0.8 3.4 -1.9
v 0.8 3.5 -2
v 0.8 3.5 -2.1
v 0.8 3.6 -1.9
v 0.8 3.6 -2
v 0.8 3.7 -1
v 0.8 3.7 -2
v 0.8 3.8 -1
v 0.8 3.8 -2.1
v 0.9 2 -0.1
v 0.9 2 -0.9
v 0.9 2.2 -0.1
v 0.9 2.2 -0.9
v 0.9 2.3 -0.1
v 0.9 2.3 -0.9
v 0.9 2.6 -0.1
v 0.9 2.6 -0.9
v 0.9 2.6 -1
v 0.9 3.8 -1
v 0.9 3.8 -3.5
v 0.9 3.9 -0.9
v 0.9 3.9 -3.5
v 0.9 4.3 0
v 0.9 4.3 -0.1
v 0.9 4.4 0
v 0.9 4.4 -0.1
v 0.9 4.4 -0.2
v 0.9 4.5 -0.1
v 0.9 4.5 -0.2
v 0.9 4.5 -3.5
v 0.9 4.6 -0.2
v 0.9 4.6 -3.5
v 1 2.6 0
v 1 2.6 -0.9
v 1 3.9 -0.9
v 1 3.9 -3.5
v 1 4.3 0
v 1 4.3 -0.1
v 1 4.4 -0.1
v 1 4.4 -0.2
v 1 4.5 -0.2
v 1 4.5 -3.5
v 0 2.6 0
v 0 4.3 0
v 0.1 4.3 0
v 0.1 4.4 0
v 0.9 4.3 0
v 0.9 4.4 0
v 1 2.6 0
v 1 4.3 0
v 0 4.3 -0.1
v 0 4.4 -0.1
v 0.1 2 -0.1
v 0.1 2.2 -0.1
v 0.1 2.3 -0.1
v 0.1 2.6 -0.1
v 0.1 4.3 -0.1
v 0.1 4.4 -0.1
v 0.1 4.5 -0.1
v 0.2 2.2 -0.1
v 0.2 2.3 -0.1
v 0.8 2.2 -0.1
v 0.8 2.3 -0.1
v 0.9 2 -0.1
v 0.9 2.2 -0.1
v 0.9 2.3 -0.1
v 0.9 2.6 -0.1
v 0.9 4.3 -0.1
v 0.9 4.4 -0.1
v 0.9 4.5 -0.1
v 1 4.3 -0.1
v 1 4.4 -0.1
v 0 4.4 -0.2
v 0 4.5 -0.2
v 0.1 4.4 -0.2
v 0.1 4.5 -0.2
v 0.1 4.6 -0.2
v 0.3 4.6 -0.2
v 0.3 4.7 -0.2
v 0.4 4.6 -0.2
v 0.4 4.7 -0.2
v 0.6 4.6 -0.2
v 0.6 4.7 -0.2
v 0.7 4.6 -0.2
v 0.7 4.7 -0.2
v 0.9 4.4 -0.2
v 0.9 4.5 -0.2
v 0.9 4.6 -0.2
v 1 4.4 -0.2
v 1 4.5 -0.2
v 0.2 2.7 -1.1
v 0.2 2.8 -1.1
v 0.8 2.7 -1.1
v 0.8 2.8 -1.1
v 0.2 2.8 -1.2
v 0.2 2.9 -1.2
v 0.4 3.4 -1.2
v 0.4 3.7 -1.2
v 0.6 3.4 -1.2
v 0.6 3.7 -1.2
v 0.8 2.8 -1.2
v 0.8 2.9 -1.2
v 0.3 3.4 -1.3
v 0.3 3.7 -1.3
v 0.4 3.2 -1.3
v 0.4 3.4 -1.3
v 0.4 3.7 -1.3
v 0.6 3.2 -1.3
v 0.6 3.4 -1.3
v 0.6 3.7 -1.3
v 0.7 3.4 -1.3
v 0.7 3.7 -1.3
v 0.2 2.9 -1.4
v 0.2 3 -1.4
v 0.8 2.9 -1.4
v 0.8 3 -1.4
v 0.2 3 -1.6
v 0.2 3.1 -1.6
v 0.8 3 -1.6
v 0.8 3.1 -1.6
v 0.2 3.1 -1.7
v 0.2 3.2 -1.7
v 0.8 3.1 -1.7
v 0.8 3.2 -1.7
v 0.2 3.2 -1.8
v 0.2 3.4 -1.8
v 0.8 3.2 -1.8
v 0.8 3.4 -1.8
v 0.2 3.4 -1.9
v 0.2 3.6 -1.9
v 0.8 3.4 -1.9
v 0.8 3.6 -1.9
v 0.2 3.6 -2
v 0.2 3.7 -2
v 0.8 3.6 -2
v 0.8 3.7 -2
v 0.4 4.6 -3.4
v 0.4 4.7 -3.4
v 0.6 4.6 -3.4
v 0.6 4.7 -3.4
v 0.3 4.6 -0.3
v 0.3 4.7 -0.3
v 0.4 4.6 -0.3
v 0.4 4.7 -0.3
v 0.6 4.6 -0.3
v 0.6 4.7 -0.3
v 0.7 4.6 -0.3
v 0.7 4.7 -0.3
v 0 2.6 -0.9
v 0 3.9 -0.9
v 0.1 2 -0.9
v 0.1 2.2 -0.9
v 0.1 2.3 -0.9
v 0.1 2.6 -0.9
v 0.1 3.9 -0.9
v 0.2 2.2 -0.9
v 0.2 2.3 -0.9
v 0.8 2.2 -0.9
v 0.8 2.3 -0.9
v 0.9 2 -0.9
v 0.9 2.2 -0.9
v 0.9 2.3 -0.9
v 0.9 2.6 -0.9
v 0.9 3.9 -0.9
v 1 2.6 -0.9
v 1 3.9 -0.9
v 0.1 2.6 -1
v 0.1 3.8 -1
v 0.2 2.6 -1
v 0.2 2.7 -1
v 0.2 3.7 -1
v 0.2 3.8 -1
v 0.8 2.6 -1
v 0.8 2.7 -1
v 0.8 3.7 -1
v 0.8 3.8 -1
v 0.9 2.6 -1
v 0.9 3.8 -1
v 0.2 4 -1.1
v 0.2 4.4 -1.1
v 0.8 4 -1.1
v 0.8 4.4 -1.1
v 0.2 2.6 -1.2
v 0.2 2.7 -1.2
v 0.8 2.6 -1.2
v 0.8 2.7 -1.2
v 0.2 2.7 -1.3
v 0.2 2.8 -1.3
v 0.8 2.7 -1.3
v 0.8 2.8 -1.3
v 0.3 3.4 -1.4
v 0.3 3.7 -1.4
v 0.4 3.2 -1.4
v 0.4 3.4 -1.4
v 0.6 3.2 -1.4
v 0.6 3.4 -1.4
v 0.7 3.4 -1.4
v 0.7 3.7 -1.4
v 0.2 2.8 -1.5
v 0.2 2.9 -1.5
v 0.8 2.8 -1.5
v 0.8 2.9 -1.5
v 0.2 2.9 -1.7
v 0.2 3 -1.7
v 0.8 2.9 -1.7
v 0.8 3 -1.7
v 0.2 3 -1.8
v 0.2 3.1 -1.8
v 0.8 3 -1.8
v 0.8 3.1 -1.8
v 0.2 3.1 -1.9
v 0.2 3.3 -1.9
v 0.8 3.1 -1.9
v 0.8 3.3 -1.9
v 0.2 3.3 -2
v 0.2 3.5 -2
v 0.8 3.3 -2
v 0.8 3.5 -2
v 0.2 3.5 -2.1
v 0.2 3.8 -2.1
v 0.8 3.5 -2.1
v 0.8 3.8 -2.1
v 0 3.9 -3.5
v 0 4.5 -3.5
v 0.1 3.8 -3.5
v 0.1 3.9 -3.5
v 0.1 4.5 -3.5
v 0.1 4.6 -3.5
v 0.2 4 -3.5
v 0.2 4.4 -3.5
v 0.4 4.6 -3.5
v 0.4 4.7 -3.5
v 0.6 4.6 -3.5
v 0.6 4.7 -3.5
v 0.8 4 -3.5
v 0.8 4.4 -3.5
v 0.9 3.8 -3.5
v 0.9 3.9 -3.5
v 0.9 4.5 -3.5
v 0.9 4.6 -3.5
v 1 3.9 -3.5
v 1 4.5 -3.5
v 0.1 2 -0.1
v 0.9 2 -0.1
v 0.1 2 -0.9
v 0.9 2 -0.9
v 0.1 2.3 -0.1
v 0.2 2.3 -0.1
v 0.8 2.3 -0.1
v 0.9 2.3 -0.1
v 0.1 2.3 -0.9
v 0.2 2.3 -0.9
v 0.8 2.3 -0.9
v 0.9 2.3 -0.9
v 0 2.6 0
v 1 2.6 0
v 0.1 2.6 -0.1
v 0.9 2.6 -0.1
v 0 2.6 -0.9
v 0.1 2.6 -0.9
v 0.9 2.6 -0.9
v 1 2.6 -0.9
v 0.1 2.6 -1
v 0.2 2.6 -1
v 0.8 2.6 -1
v 0.9 2.6 -1
v 0.2 2.6 -1.2
v 0.8 2.6 -1.2
v 0.2 2.7 -1.2
v 0.8 2.7 -1.2
v 0.2 2.7 -1.3
v 0.8 2.7 -1.3
v 0.2 2.8 -1.3
v 0.8 2.8 -1.3
v 0.2 2.8 -1.5
v 0.8 2.8 -1.5
v 0.2 2.9 -1.5
v 0.8 2.9 -1.5
v 0.2 2.9 -1.7
v 0.8 2.9 -1.7
v 0.2 3 -1.7
v 0.8 3 -1.7
v 0.2 3 -1.8
v 0.8 3 -1.8
v 0.2 3.1 -1.8
v 0.8 3.1 -1.8
v 0.2 3.1 -1.9
v 0.8 3.1 -1.9
v 0.4 3.2 -1.3
v 0.6 3.2 -1.3
v 0.4 3.2 -1.4
v 0.6 3.2 -1.4
v 0.2 3.3 -1.9
v 0.8 3.3 -1.9
v 0.2 3.3 -2
v 0.8 3.3 -2
v 0.4 3.4 -1.2
v 0.6 3.4 -1.2
v 0.3 3.4 -1.3
v 0.4 3.4 -1.3
v 0.6 3.4 -1.3
v 0.7 3.4 -1.3
v 0.3 3.4 -1.4
v 0.4 3.4 -1.4
v 0.6 3.4 -1.4
v 0.7 3.4 -1.4
v 0.2 3.5 -2
v 0.8 3.5 -2
v 0.2 3.5 -2.1
v 0.8 3.5 -2.1
v 0.2 3.7 -1
v 0.8 3.7 -1
v 0.4 3.7 -1.2
v 0.6 3.7 -1.2
v 0.3 3.7 -1.3
v 0.4 3.7 -1.3
v 0.6 3.7 -1.3
v 0.7 3.7 -1.3
v 0.3 3.7 -1.4
v 0.7 3.7 -1.4
v 0.2 3.7 -2
v 0.8 3.7 -2
v 0.1 3.8 -1
v 0.2 3.8 -1
v 0.8 3.8 -1
v 0.9 3.8 -1
v 0.2 3.8 -2.1
v 0.8 3.8 -2.1
v 0.1 3.8 -3.5
v 0.9 3.8 -3.5
v 0 3.9 -0.9
v 0.1 3.9 -0.9
v 0.9 3.9 -0.9
v 1 3.9 -0.9
v 0 3.9 -3.5
v 0.1 3.9 -3.5
v 0.9 3.9 -3.5
v 1 3.9 -3.5
v 0.2 4.4 -1.1
v 0.8 4.4 -1.1
v 0.2 4.4 -3.5
v 0.8 4.4 -3.5
v 0.1 2.2 -0.1
v 0.2 2.2 -0.1
v 0.8 2.2 -0.1
v 0.9 2.2 -0.1
v 0.1 2.2 -0.9
v 0.2 2.2 -0.9
v 0.8 2.2 -0.9
v 0.9 2.2 -0.9
v 0.2 2.7 -1
v 0.8 2.7 -1
v 0.2 2.7 -1.1
v 0.8 2.7 -1.1
v 0.2 2.8 -1.1
v 0.8 2.8 -1.1
v 0.2 2.8 -1.2
v 0.8 2.8 -1.2
v 0.2 2.9 -1.2
v 0.8 2.9 -1.2
v 0.2 2.9 -1.4
v 0.8 2.9 -1.4
v 0.2 3 -1.4
v 0.8 3 -1.4
v 0.2 3 -1.6
v 0.8 3 -1.6
v 0.2 3.1 -1.6
v 0.8 3.1 -1.6
v 0.2 3.1 -1.7
v 0.8 3.1 -1.7
v 0.2 3.2 -1.7
v 0.8 3.2 -1.7
v 0.2 3.2 -1.8
v 0.8 3.2 -1.8
v 0.2 3.4 -1.8
v 0.8 3.4 -1.8
v 0.2 3.4 -1.9
v 0.8 3.4 -1.9
v 0.2 3.6 -1.9
v 0.8 3.6 -1.9
v 0.2 3.6 -2
v 0.8 3.6 -2
v 0.2 4 -1.1
v 0.8 4 -1.1
v 0.2 4 -3.5
v 0.8 4 -3.5
v 0 4.3 0
v 0.1 4.3 0
v 0.9 4.3 0
v 1 4.3 0
v 0 4.3 -0.1
v 0.1 4.3 -0.1
v 0.9 4.3 -0.1
v 1 4.3 -0.1
v 0.1 4.4 0
v 0.9 4.4 0
v 0 4.4 -0.1
v 0.1 4.4 -0.1
v 0.9 4.4 -0.1
v 1 4.4 -0.1
v 0 4.4 -0.2
v 0.1 4.4 -0.2
v 0.9 4.4 -0.2
v 1 4.4 -0.2
v 0.1 4.5 -0.1
v 0.9 4.5 -0.1
v 0 4.5 -0.2
v 0.1 4.5 -0.2
v 0.9 4.5 -0.2
v 1 4.5 -0.2
v 0 4.5 -3.5
v 0.1 4.5 -3.5
v 0.9 4.5 -3.5
v 1 4.5 -3.5
v 0.1 4.6 -0.2
v 0.3 4.6 -0.2
v 0.4 4.6 -0.2
v 0.6 4.6 -0.2
v 0.7 4.6 -0.2
v 0.9 4.6 -0.2
v 0.3 4.6 -0.3
v 0.4 4.6 -0.3
v 0.6 4.6 -0.3
v 0.7 4.6 -0.3
v 0.4 4.6 -3.4
v 0.6 4.6 -3.4
v 0.1 4.6 -3.5
v 0.4 4.6 -3.5
v 0.6 4.6 -3.5
v 0.9 4.6 -3.5
v 0.3 4.7 -0.2
v 0.4 4.7 -0.2
v 0.6 4.7 -0.2
v 0.7 4.7 -0.2
v 0.3 4.7 -0.3
v 0.4 4.7 -0.3
v 0.6 4.7 -0.3
v 0.7 4.7 -0.3
v 0.4 4.7 -3.4
v 0.6 4.7 -3.4
v 0.4 4.7 -3.5
v 0.6 4.7 -3.5

# faces
f 3/3/1 2/3/1 1/3/1
f 5/3/1 3/3/1 1/3/1
f 5/3/1 4/3/1 3/3/1
f 6/3/1 4/3/1 5/3/1
f 7/3/1 4/3/1 6/3/1
f 8/3/1 4/3/1 7/3/1
f 9/3/1 4/3/1 8/3/1
f 10/3/1 4/3/1 9/3/1
f 13/5/1 12/5/1 11/5/1
f 14/5/1 12/5/1 13/5/1
f 17/5/1 16/5/1 15/5/1
f 18/5/1 16/5/1 17/5/1
f 20/3/1 19/3/1 18/3/1
f 22/3/1 20/3/1 18/3/1
f 22/3/1 21/3/1 20/3/1
f 23/3/1 21/3/1 22/3/1
f 26/3/1 25/3/1 24/3/1
f 27/3/1 25/3/1 26/3/1
f 29/3/1 28/3/1 27/3/1
f 30/3/1 28/3/1 29/3/1
f 32/3/1 31/3/1 30/3/1
f 33/3/1 31/3/1 32/3/1
f 36/4/1 35/4/1 34/4/1
f 37/4/1 35/4/1 36/4/1
f 40/3/1 39/3/1 38/3/1
f 41/3/1 39/3/1 40/3/1
f 42/3/1 39/3/1 41/3/1
f 44/3/1 43/3/1 42/3/1
f 44/3/1 42/3/1 41/3/1
f 45/3/1 43/3/1 44/3/1
f 46/3/1 43/3/1 45/3/1
f 48/3/1 47/3/1 46/3/1
f 48/3/1 46/3/1 45/3/1
f 49/3/1 47/3/1 48/3/1
f 50/3/1 47/3/1 49/3/1
f 52/3/1 51/3/1 50/3/1
f 52/3/1 50/3/1 49/3/1
f 53/3/1 51/3/1 52/3/1
f 54/3/1 51/3/1 53/3/1
f 56/3/1 55/3/1 54/3/1
f 56/3/1 54/3/1 53/3/1
f 57/3/1 55/3/1 56/3/1
f 58/3/1 55/3/1 57/3/1
f 60/3/1 59/3/1 58/3/1
f 60/3/1 58/3/1 57/3/1
f 61/3/1 59/3/1 60/3/1
f 62/3/1 59/3/1 61/3/1
f 64/3/1 62/3/1 61/3/1
f 64/3/1 63/3/1 62/3/1
f 65/3/1 63/3/1 64/3/1
f 66/3/1 63/3/1 65/3/1
f 68/3/1 66/3/1 65/3/1
f 68/3/1 67/3/1 66/3/1
f 69/3/1 67/3/1 68/3/1
f 71/3/1 67/3/1 69/3/1
f 72/3/1 71/3/1 70/3/1
f 73/3/1 67/3/1 71/3/1
f 73/3/1 71/3/1 72/3/1
f 76/2/1 75/2/1 74/2/1
f 77/2/1 75/2/1 76/2/1
f 80/1/1 79/1/1 78/1/1
f 81/1/1 79/1/1 80/1/1
f 85/2/1 83/2/1 82/2/1
f 86/2/1 83/2/1 85/2/1
f 87/2/1 85/2/1 84/2/1
f 88/2/1 85/2/1 87/2/1
f 91/1/1 90/1/1 89/1/1
f 92/1/1 90/1/1 91/1/1
f 95/1/1 94/1/1 93/1/1
f 96/1/1 94/1/1 95/1/1
f 99/3/1 98/3/1 97/3/1
f 100/3/1 98/3/1 99/3/1
f 101/3/2 102/3/2 103/3/2
f 103/3/2 102/3/2 104/3/2
f 105/1/2 106/1/2 107/1/2
f 107/1/2 106/1/2 108/1/2
f 109/2/2 110/2/2 112/2/2
f 112/2/2 110/2/2 113/2/2
f 111/2/2 112/2/2 114/2/2
f 114/2/2 112/2/2 115/2/2
f 116/1/2 117/1/2 118/1/2
f 118/1/2 117/1/2 119/1/2
f 120/2/2 121/2/2 122/2/2
f 122/2/2 121/2/2 123/2/2
f 124/1/2 125/1/2 126/1/2
f 126/1/2 125/1/2 127/1/2
f 128/4/2 129/4/2 130/4/2
f 130/4/2 129/4/2 131/4/2
f 132/3/2 133/3/2 134/3/2
f 134/3/2 133/3/2 135/3/2
f 135/3/2 133/3/2 136/3/2
f 136/3/2 137/3/2 138/3/2
f 135/3/2 136/3/2 138/3/2
f 138/3/2 137/3/2 139/3/2
f 139/3/2 137/3/2 140/3/2
f 140/3/2 141/3/2 142/3/2
f 139/3/2 140/3/2 142/3/2
f 142/3/2 141/3/2 143/3/2
f 143/3/2 141/3/2 144/3/2
f 144/3/2 145/3/2 146/3/2
f 143/3/2 144/3/2 146/3/2
f 146/3/2 145/3/2 147/3/2
f 147/3/2 145/3/2 148/3/2
f 148/3/2 149/3/2 150/3/2
f 147/3/2 148/3/2 150/3/2
f 150/3/2 149/3/2 151/3/2
f 151/3/2 149/3/2 152/3/2
f 152/3/2 153/3/2 154/3/2
f 151/3/2 152/3/2 154/3/2
f 154/3/2 153/3/2 155/3/2
f 155/3/2 153/3/2 156/3/2
f 155/3/2 156/3/2 158/3/2
f 156/3/2 157/3/2 158/3/2
f 158/3/2 157/3/2 159/3/2
f 159/3/2 157/3/2 160/3/2
f 159/3/2 160/3/2 162/3/2
f 160/3/2 161/3/2 162/3/2
f 162/3/2 161/3/2 163/3/2
f 163/3/2 161/3/2 165/3/2
f 164/3/2 165/3/2 166/3/2
f 165/3/2 161/3/2 167/3/2
f 166/3/2 165/3/2 167/3/2
f 168/5/2 169/5/2 170/5/2
f 170/5/2 169/5/2 171/5/2
f 172/5/2 173/5/2 174/5/2
f 174/5/2 173/5/2 175/5/2
f 175/3/2 176/3/2 177/3/2
f 175/3/2 177/3/2 179/3/2
f 177/3/2 178/3/2 179/3/2
f 179/3/2 178/3/2 180/3/2
f 181/3/2 182/3/2 183/3/2
f 183/3/2 182/3/2 184/3/2
f 184/3/2 185/3/2 186/3/2
f 186/3/2 185/3/2 187/3/2
f 187/3/2 188/3/2 189/3/2
f 189/3/2 188/3/2 190/3/2
f 191/3/2 192/3/2 193/3/2
f 191/3/2 193/3/2 195/3/2
f 193/3/2 194/3/2 195/3/2
f 195/3/2 194/3/2 196/3/2
f 196/3/2 194/3/2 197/3/2
f 197/3/2 194/3/2 198/3/2
f 198/3/2 194/3/2 199/3/2
f 199/3/2 194/3/2 200/3/2
f 203/3/3 202/3/3 201/3/3
f 205/3/3 203/3/3 201/3/3
f 205/3/3 204/3/3 203/3/3
f 206/3/3 204/3/3 205/3/3
f 207/3/3 205/3/3 201/3/3
f 208/3/3 205/3/3 207/3/3
f 215/3/3 210/3/3 209/3/3
f 216/3/3 210/3/3 215/3/3
f 218/5/3 212/5/3 211/5/3
f 219/5/3 214/5/3 213/5/3
f 220/5/3 218/5/3 211/5/3
f 220/4/3 219/4/3 218/4/3
f 221/5/3 214/5/3 219/5/3
f 221/4/3 219/4/3 220/4/3
f 222/5/3 220/5/3 211/5/3
f 223/5/3 220/5/3 222/5/3
f 224/5/3 214/5/3 221/5/3
f 225/5/3 214/5/3 224/5/3
f 227/3/3 217/3/3 216/3/3
f 228/3/3 217/3/3 227/3/3
f 229/3/3 227/3/3 226/3/3
f 230/3/3 227/3/3 229/3/3
f 233/3/3 232/3/3 231/3/3
f 234/3/3 232/3/3 233/3/3
f 236/3/3 235/3/3 234/3/3
f 238/3/3 236/3/3 234/3/3
f 238/1/3 237/1/3 236/1/3
f 239/1/3 237/1/3 238/1/3
f 240/3/3 238/3/3 234/3/3
f 242/3/3 240/3/3 234/3/3
f 242/1/3 241/1/3 240/1/3
f 243/1/3 241/1/3 242/1/3
f 245/3/3 242/3/3 234/3/3
f 246/3/3 242/3/3 245/3/3
f 247/3/3 245/3/3 244/3/3
f 248/3/3 245/3/3 247/3/3
f 251/3/3 250/3/3 249/3/3
f 252/3/3 250/3/3 251/3/3
f 257/2/3 256/2/3 255/2/3
f 258/2/3 256/2/3 257/2/3
f 259/3/3 254/3/3 253/3/3
f 260/3/3 254/3/3 259/3/3
f 264/2/3 262/2/3 261/2/3
f 265/2/3 262/2/3 264/2/3
f 266/2/3 264/2/3 263/2/3
f 267/2/3 264/2/3 266/2/3
f 269/2/3 268/2/3 267/2/3
f 270/2/3 268/2/3 269/2/3
f 273/3/3 272/3/3 271/3/3
f 274/3/3 272/3/3 273/3/3
f 277/3/3 276/3/3 275/3/3
f 278/3/3 276/3/3 277/3/3
f 281/3/3 280/3/3 279/3/3
f 282/3/3 280/3/3 281/3/3
f 285/3/3 284/3/3 283/3/3
f 286/3/3 284/3/3 285/3/3
f 289/3/3 288/3/3 287/3/3
f 290/3/3 288/3/3 289/3/3
f 293/3/3 292/3/3 291/3/3
f 294/3/3 292/3/3 293/3/3
f 297/1/3 296/1/3 295/1/3
f 298/1/3 296/1/3 297/1/3
f 299/1/4 300/1/4 301/1/4
f 301/1/4 300/1/4 302/1/4
f 303/1/4 304/1/4 305/1/4
f 305/1/4 304/1/4 306/1/4
f 307/3/4 308/3/4 312/3/4
f 312/3/4 308/3/4 313/3/4
f 309/5/4 310/5/4 314/5/4
f 311/5/4 312/5/4 315/5/4
f 309/5/4 314/5/4 316/5/4
f 314/4/4 315/4/4 316/4/4
f 315/5/4 312/5/4 317/5/4
f 316/4/4 315/4/4 317/4/4
f 309/5/4 316/5/4 318/5/4
f 318/5/4 316/5/4 319/5/4
f 317/5/4 312/5/4 320/5/4
f 320/5/4 312/5/4 321/5/4
f 321/3/4 322/3/4 323/3/4
f 323/3/4 322/3/4 324/3/4
f 325/3/4 326/3/4 327/3/4
f 327/3/4 326/3/4 328/3/4
f 328/3/4 326/3/4 329/3/4
f 329/3/4 326/3/4 330/3/4
f 328/3/4 329/3/4 332/3/4
f 332/3/4 329/3/4 333/3/4
f 331/3/4 332/3/4 335/3/4
f 333/3/4 334/3/4 335/3/4
f 332/3/4 333/3/4 335/3/4
f 335/3/4 334/3/4 336/3/4
f 337/3/4 338/3/4 339/3/4
f 339/3/4 338/3/4 340/3/4
f 341/3/4 342/3/4 343/3/4
f 343/3/4 342/3/4 344/3/4
f 345/3/4 346/3/4 347/3/4
f 347/3/4 346/3/4 348/3/4
f 349/2/4 350/2/4 352/2/4
f 351/2/4 352/2/4 353/2/4
f 352/2/4 350/2/4 354/2/4
f 353/2/4 352/2/4 354/2/4
f 354/2/4 350/2/4 355/2/4
f 355/2/4 350/2/4 356/2/4
f 357/3/4 358/3/4 359/3/4
f 359/3/4 358/3/4 360/3/4
f 361/3/4 362/3/4 363/3/4
f 363/3/4 362/3/4 364/3/4
f 365/3/4 366/3/4 367/3/4
f 367/3/4 366/3/4 368/3/4
f 369/3/4 370/3/4 371/3/4
f 371/3/4 370/3/4 372/3/4
f 373/3/4 374/3/4 375/3/4
f 375/3/4 374/3/4 376/3/4
f 377/3/4 378/3/4 379/3/4
f 379/3/4 378/3/4 380/3/4
f 381/3/4 382/3/4 384/3/4
f 384/3/4 382/3/4 385/3/4
f 383/3/4 384/3/4 387/3/4
f 385/3/4 386/3/4 387/3/4
f 384/3/4 385/3/4 387/3/4
f 387/3/4 386/3/4 388/3/4
f 388/3/4 386/3/4 389/3/4
f 388/3/4 389/3/4 391/3/4
f 389/1/4 390/1/4 391/1/4
f 391/1/4 390/1/4 392/1/4
f 383/3/4 387/3/4 393/3/4
f 388/3/4 391/3/4 394/3/4
f 383/3/4 393/3/4 395/3/4
f 393/3/4 394/3/4 395/3/4
f 395/3/4 394/3/4 396/3/4
f 394/3/4 391/3/4 397/3/4
f 396/3/4 394/3/4 397/3/4
f 397/3/4 391/3/4 398/3/4
f 396/3/4 397/3/4 399/3/4
f 399/3/4 397/3/4 400/3/4
f 403/5/5 402/5/5 401/5/5
f 404/5/5 402/5/5 403/5/5
f 409/5/5 406/5/5 405/5/5
f 410/5/5 406/5/5 409/5/5
f 411/5/5 408/5/5 407/5/5
f 412/5/5 408/5/5 411/5/5
f 415/3/5 414/3/5 413/3/5
f 416/3/5 414/3/5 415/3/5
f 417/3/5 415/3/5 413/3/5
f 418/3/5 415/3/5 417/3/5
f 419/3/5 414/3/5 416/3/5
f 420/3/5 414/3/5 419/3/5
f 421/3/5 419/3/5 418/3/5
f 422/3/5 419/3/5 421/3/5
f 423/3/5 419/3/5 422/3/5
f 424/3/5 419/3/5 423/3/5
f 425/3/5 423/3/5 422/3/5
f 426/3/5 423/3/5 425/3/5
f 429/3/5 428/3/5 427/3/5
f 430/3/5 428/3/5 429/3/5
f 433/3/5 432/3/5 431/3/5
f 434/3/5 432/3/5 433/3/5
f 437/3/5 436/3/5 435/3/5
f 438/3/5 436/3/5 437/3/5
f 441/3/5 440/3/5 439/3/5
f 442/3/5 440/3/5 441/3/5
f 445/3/5 444/3/5 443/3/5
f 446/3/5 444/3/5 445/3/5
f 449/2/5 448/2/5 447/2/5
f 450/2/5 448/2/5 449/2/5
f 453/3/5 452/3/5 451/3/5
f 454/3/5 452/3/5 453/3/5
f 458/2/5 456/2/5 455/2/5
f 459/2/5 456/2/5 458/2/5
f 461/2/5 458/2/5 457/2/5
f 462/2/5 458/2/5 461/2/5
f 463/2/5 460/2/5 459/2/5
f 464/2/5 460/2/5 463/2/5
f 467/3/5 466/3/5 465/3/5
f 468/3/5 466/3/5 467/3/5
f 471/3/5 470/3/5 469/3/5
f 472/3/5 470/3/5 471/3/5
f 473/3/5 471/3/5 469/3/5
f 474/3/5 471/3/5 473/3/5
f 475/3/5 470/3/5 472/3/5
f 476/3/5 470/3/5 475/3/5
f 477/3/5 473/3/5 469/3/5
f 478/3/5 470/3/5 476/3/5
f 479/3/5 477/3/5 469/3/5
f 479/3/5 478/3/5 477/3/5
f 480/3/5 470/3/5 478/3/5
f 480/3/5 478/3/5 479/3/5
f 485/3/5 482/3/5 481/3/5
f 486/3/5 484/3/5 483/3/5
f 487/3/5 485/3/5 481/3/5
f 487/3/5 486/3/5 485/3/5
f 488/3/5 484/3/5 486/3/5
f 488/3/5 486/3/5 487/3/5
f 493/3/5 490/3/5 489/3/5
f 494/3/5 490/3/5 493/3/5
f 495/3/5 492/3/5 491/3/5
f 496/3/5 492/3/5 495/3/5
f 499/3/5 498/3/5 497/3/5
f 500/3/5 498/3/5 499/3/5
f 501/5/6 502/5/6 505/5/6
f 505/5/6 502/5/6 506/5/6
f 503/5/6 504/5/6 507/5/6
f 507/5/6 504/5/6 508/5/6
f 509/3/6 510/3/6 511/3/6
f 511/3/6 510/3/6 512/3/6
f 513/3/6 514/3/6 515/3/6
f 515/3/6 514/3/6 516/3/6
f 517/3/6 518/3/6 519/3/6
f 519/3/6 518/3/6 520/3/6
f 521/3/6 522/3/6 523/3/6
f 523/3/6 522/3/6 524/3/6
f 525/3/6 526/3/6 527/3/6
f 527/3/6 526/3/6 528/3/6
f 529/3/6 530/3/6 531/3/6
f 531/3/6 530/3/6 532/3/6
f 533/3/6 534/3/6 535/3/6
f 535/3/6 534/3/6 536/3/6
f 537/3/6 538/3/6 539/3/6
f 539/3/6 538/3/6 540/3/6
f 541/3/6 542/3/6 543/3/6
f 543/3/6 542/3/6 544/3/6
f 545/3/6 546/3/6 549/3/6
f 549/3/6 546/3/6 550/3/6
f 547/3/6 548/3/6 551/3/6
f 551/3/6 548/3/6 552/3/6
f 553/3/6 554/3/6 556/3/6
f 556/3/6 554/3/6 557/3/6
f 555/3/6 556/3/6 559/3/6
f 559/3/6 556/3/6 560/3/6
f 557/3/6 558/3/6 561/3/6
f 561/3/6 558/3/6 562/3/6
f 563/3/6 564/3/6 566/3/6
f 566/3/6 564/3/6 567/3/6
f 565/3/6 566/3/6 569/3/6
f 569/3/6 566/3/6 570/3/6
f 567/3/6 568/3/6 571/3/6
f 571/3/6 568/3/6 572/3/6
f 573/3/6 574/3/6 579/3/6
f 575/3/6 576/3/6 580/3/6
f 580/3/6 576/3/6 581/3/6
f 577/3/6 578/3/6 582/3/6
f 580/3/6 581/3/6 583/3/6
f 581/3/6 582/3/6 583/3/6
f 579/3/6 580/3/6 583/3/6
f 583/3/6 582/3/6 584/3/6
f 573/3/6 579/3/6 585/3/6
f 579/3/6 583/3/6 585/3/6
f 585/3/6 583/3/6 586/3/6
f 584/3/6 582/3/6 587/3/6
f 582/3/6 578/3/6 588/3/6
f 587/3/6 582/3/6 588/3/6
f 589/1/6 590/1/6 593/1/6
f 593/1/6 590/1/6 594/1/6
f 591/1/6 592/1/6 595/1/6
f 595/1/6 592/1/6 596/1/6
f 597/1/6 598/1/6 599/1/6
f 599/1/6 598/1/6 600/1/6
